<?xml version="1.0" standalone="no"?>
<!DOCTYPE svg PUBLIC "-//W3C//DTD SVG 20010904//EN"
 "http://www.w3.org/TR/2001/REC-SVG-20010904/DTD/svg10.dtd">
<svg version="1.0"
        xmlns="http://www.w3.org/2000/svg" width="512.000000pt" height="512.000000pt" viewBox="0 0 512.000000 512.000000" preserveAspectRatio="xMidYMid meet">

        <rect width="100%" height="100%" fill="#0065bd" rx="30" ry="30"/>
        <rect x="80" y="110" width="352" height="402" fill="#FFFFFF" rx="15" ry="15"/>
        <rect x="80" y="400" width="352" height="112" fill="#FFFFFF"/>
        <g transform="translate(0.000000,512.000000) scale(0.100000,-0.100000)" stroke="none">
                <path d="M1230 3010 l0 -520 525 0 525 0 0 50 0 50 -104 0 -105 0 -3 53 -3 52
-155 0 -155 0 -3 -52 -3 -53 -105 0 -104 0 0 105 0 105 -106 0 -105 0 3 53 3
52 53 3 52 3 0 50 0 49 -55 0 -55 0 0 55 0 55 105 0 104 0 3 101 3 102 50 0
50 0 3 -52 3 -51 210 0 209 0 0 -105 0 -105 -105 0 -105 0 0 50 0 50 -56 0
-55 0 3 -47 3 -48 53 -3 52 -3 0 -105 0 -104 155 0 155 0 0 50 0 50 -50 0 -50
0 0 55 0 55 49 0 50 0 3 53 3 52 53 3 52 3 0 50 0 49 -56 0 -55 0 3 52 3 51
50 1 50 1 3 52 3 52 -53 3 -53 3 0 48 0 47 -52 0 -53 0 0 -105 0 -105 -160 0
-160 0 0 105 0 105 -50 0 -50 0 0 -50 0 -50 -55 0 -55 0 0 50 0 50 -50 0 -50
0 0 -155 0 -155 -55 0 -55 0 0 155 0 155 -50 0 -50 0 0 -520z m210 -365 l0
-55 -55 0 -55 0 0 55 0 55 55 0 55 0 0 -55z" fill="#000000"/>
                <path d="M1860 3480 l0 -50 50 0 50 0 0 50 0 50 -50 0 -50 0 0 -50z" fill="#000000"/>
                <path d="M2610 3470 l0 -60 65 0 65 0 0 -280 0 -280 60 0 60 0 0 280 0 280 65
0 65 0 0 -280 0 -280 195 0 195 0 0 280 0 280 75 0 75 0 0 -280 0 -280 60 0
60 0 0 280 0 280 75 0 75 0 0 -280 0 -280 60 0 60 0 0 340 0 340 -330 0 -330
0 0 -275 0 -275 -75 0 -75 0 0 275 0 275 -250 0 -250 0 0 -60z" fill="#000000"/>
                <path d="M1550 3060 l0 -50 50 0 50 0 0 50 0 50 -50 0 -50 0 0 -50z" fill="#000000"/>
                <path d="M2180 2960 l0 -50 50 0 50 0 0 50 0 50 -50 0 -50 0 0 -50z" fill="#000000"/>
                <path d="M1550 2850 l0 -50 50 0 50 0 0 -50 0 -50 50 0 50 0 0 50 0 50 -50 0
-50 0 0 50 0 50 -50 0 -50 0 0 -50z" fill="#000000"/>
                <path d="M2180 2750 l0 -50 50 0 50 0 0 50 0 50 -50 0 -50 0 0 -50z" fill="#000000"/>
                <path d="M1230 1870 l0 -140 1355 0 1355 0 0 140 0 140 -1355 0 -1355 0 0
-140z" fill="#000000"/>
                <path d="M1230 1390 l0 -140 850 0 850 0 0 140 0 140 -850 0 -850 0 0 -140z" fill="#000000"/>
                <path d="M1230 910 l0 -140 1355 0 1355 0 0 140 0 140 -1355 0 -1355 0 0 -140z" fill="#000000"/>
                <path d="M1230 420 l0 -140 1020 0 1020 0 0 140 0 140 -1020 0 -1020 0 0 -140z" fill="#000000"/>
        </g>
</svg>
